<?xml version="1.0" encoding="utf-8"?>
<!-- Generator: Adobe Illustrator 21.0.0, SVG Export Plug-In . SVG Version: 6.00 Build 0)  -->
<svg version="1.0" id="Layer_1" xmlns="http://www.w3.org/2000/svg" xmlns:xlink="http://www.w3.org/1999/xlink" x="0px" y="0px"
	 width="765px" height="359px" viewBox="0 0 765 359" enable-background="new 0 0 765 359" xml:space="preserve">
<path fill="#599636" d="M78.2,94.9c1.4,2.6,3.3,6.7,4.9,9.2c1.1,1.7,2.3,3.2,3.7,4.6c4.1,4.1,8,8.4,11.5,13
	c8.3,10.9,13.9,23,17.9,36.1c2.4,8,3.7,16.2,3.8,24.5c0.4,24.8-8.1,46.1-25.3,63.8c-2.8,2.8-5.8,5.4-9,7.7c-1.7,0-2.5-1.3-3.2-2.5
	c-1.3-2.2-2.1-4.7-2.5-7.2c-0.6-3-1-6-0.8-9.1c0-0.5,0-0.9,0-1.4C79.1,233.3,77.6,95.6,78.2,94.9z"/>
<path fill="#47474A" d="M171.1,215.9c0,5.1,0,10.2,0,15.2c0,0.6,0,1.2,0.1,1.8c0.2,1.8,1.3,2.9,3,3.4c1.5,0.4,3.1,0.7,4.6,0.9
	c0.9,0.1,1.2,0.5,1.3,1.4c0.1,3.4-0.2,3.8-3.5,3.6c-7.7-0.4-15.4-0.5-23.1,0c-0.3,0-0.6,0-0.8,0c-2.4,0.1-2.6-0.1-2.6-2.5
	c0-0.4,0.1-0.9,0.1-1.3c0-0.8,0.5-1.1,1.2-1.1c1.6-0.2,3.1-0.6,4.6-0.9c2.1-0.5,3.3-1.8,3.5-3.9c0.3-2.3,0.3-4.7,0.3-7
	c0.3-8.9,0.2-17.9,0.1-26.8c0-1.7-0.7-3-2.2-3.8c-1.8-1-3.7-1.8-5.7-2.4c-0.6-0.2-1.2-0.3-1.7-0.6c-1.4-0.7-1.5-2-0.1-2.8
	c0.5-0.3,1.1-0.5,1.7-0.6c6.1-0.9,12-2.4,17.8-4.5c1.2-0.4,1.5-0.3,1.6,0.9c0.1,0.8,0,1.6-0.1,2.3c-0.2,1.3-0.2,2.6-0.2,3.8
	c0,0.5,0.1,1,0.6,1.3c0.5,0.3,1,0,1.4-0.3c2.1-1.6,4.2-3.1,6.5-4.4c3.3-1.8,6.8-3.4,10.6-3.9c4.6-0.6,8.6,0.6,12.1,3.6
	c1.5,1.3,2.7,2.8,3.8,4.4c1,1.4,1.1,1.5,2.4,0.5c3.8-2.8,7.8-5.3,12.1-7.1c4.5-1.9,9.1-2.2,13.7-0.6c4.7,1.7,7.9,5,9.8,9.5
	c1.6,3.6,2.3,7.4,2.3,11.2c0,5.9,0,11.8,0,17.8c0,3,0,6,0,9c0,1.8,0.8,3,2.5,3.8c1.9,0.8,4,1.1,6,1.5c1.3,0.3,1.3,0.3,1.3,1.6
	c-0.2,3.3-0.5,3.5-3.7,3.3c-8-0.5-16.1-0.4-24.1,0c-1.6,0.1-1.6,0.1-1.7-1.5c0-0.2,0-0.3,0-0.5c-0.1-2.7-0.1-2.7,2.5-3.3
	c0.9-0.2,1.7-0.4,2.6-0.7c2-0.6,3-1.9,3.1-3.9c0.1-2.5,0.2-5,0.3-7.5c0-6.5,0.2-13.1-0.2-19.6c-0.1-1.7-0.4-3.4-1.1-5.1
	c-2.5-6.1-8-8.3-13.3-7.7c-4,0.4-7.5,2-10.8,4.3c-0.7,0.5-1.2,1.1-1.1,2.1c0.9,6.4,0.3,12.8,0.4,19.2c0.1,4.6,0,9.3,0,13.9
	c0,2.5,1,3.7,3.4,4.3c1.5,0.4,3,0.7,4.6,1c0.7,0.1,1.1,0.4,1.1,1.2c0,0.3,0,0.6,0,0.8c-0.1,2.8-0.3,3-3.1,2.9c-8-0.4-16-0.3-23.9,0
	c-2.7,0.1-3-0.2-2.8-3c0.1-1.6,0.3-1.7,1.8-2c1.1-0.2,2.2-0.4,3.3-0.6c3-0.6,4-1.7,4.2-4.8c0.1-2.2,0.3-4.5,0.3-6.7
	c0.1-6.7,0.3-13.4-0.2-20.1c-0.2-2.5-0.8-4.9-2.1-7.2c-2-3.7-5.2-5.6-9.4-5.8c-4.3-0.3-8.1,1.3-11.7,3.3c-2.5,1.4-3.6,3.2-3.4,6.1
	C171.2,206.3,171,211.1,171.1,215.9C171,215.9,171.1,215.9,171.1,215.9z"/>
<path fill="#47474A" d="M359.5,216.5c0,4.7,0,9.4,0,14.1c0,1,0.1,2,0.2,3c0.2,1.5,1,2.4,2.4,2.8c1.7,0.5,3.5,0.8,5.3,0.9
	c1,0.1,1.2,0.5,1.3,1.3c0,0.2,0,0.4,0,0.7c-0.1,3.5-0.5,3.9-3.9,3.7c-7.6-0.5-15.2-0.4-22.8,0c-1,0-2,0.1-3,0.1
	c-0.6,0-0.8-0.3-0.9-0.7c-0.3-1.4-0.3-2.8,0-4.2c0.1-0.6,0.5-0.8,1.1-0.9c1.4-0.2,2.7-0.5,4.1-0.8c2.5-0.6,3.4-1.6,3.5-4.2
	c0.2-2.8,0.3-5.6,0.3-8.4c0-8.2,0-16.4,0-24.6c0-1.8-0.7-2.9-2.3-3.7c-1.8-1-3.7-1.7-5.7-2.4c-0.6-0.2-1.2-0.4-1.7-0.7
	c-1.3-0.9-1.4-2.2-0.2-3.2c0.6-0.5,1.2-0.7,2-0.8c6.4-1,12.6-2.4,18.6-4.8c0.7-0.3,1-0.1,1.3,0.5c0.3,0.6,0.4,1.3,0.3,2
	c-0.1,1.6-0.2,3.1-0.3,4.7c0,0.6-0.3,1.4,0.2,1.7c0.6,0.4,1-0.5,1.5-0.8c3-2.4,6.2-4.6,9.7-6.2c3.1-1.4,6.3-2.4,9.9-2.2
	c6.7,0.4,11.5,3.8,14.6,9.7c1.6,3.1,2.3,6.5,2.6,10c0.2,2.4,0.3,4.9,0.3,7.4c0,6.9,0.1,13.7,0.1,20.6c0,0.5,0,1,0,1.5
	c0.1,1.7,0.7,2.8,2.4,3.4c1.8,0.6,3.5,1,5.4,1.3c1.6,0.2,1.7,0.5,1.8,2c0,0.2,0,0.3,0,0.5c-0.2,3.4-0.4,3.5-3.8,3.3
	c-7.5-0.4-15-0.4-22.4,0c-1,0.1-2,0-3,0.1c-0.6,0-1-0.1-1.1-0.7c-0.2-1.3-0.4-2.6-0.1-4c0.1-0.6,0.4-0.9,1.1-1
	c1.5-0.2,3.1-0.4,4.6-0.8c1.6-0.4,2.5-1.4,2.7-3c0.1-0.9,0.2-1.9,0.2-2.8c0-7,0-14-0.1-20.9c0-2.4-0.1-4.8-0.6-7.2
	c-1.2-5.2-5.1-8.7-10.4-9.3c-4.6-0.5-8.7,0.7-12.6,3.2c-1.9,1.2-2.7,2.9-2.7,5c0,3.5,0,7,0,10.6c0,1.5,0,3,0,4.5
	C359.4,216.5,359.4,216.5,359.5,216.5z"/>
<path fill="#6CAC48" d="M78.2,94.6c-0.2-0.4-0.4-0.1-0.6,0.1c0.1,2-0.6,3.8-1.7,5.5c-1.2,1.7-2.8,3-4.4,4.4
	c-8.9,7.7-15.9,17-21.5,27.4c-7.4,14-11.3,29-12.4,44.8c-0.5,5.7,1.8,25.8,3.6,31.6c4.9,15.4,13.7,28.3,25.1,39.5
	c2.8,2.7,5.8,5.2,8.9,7.6c0.9,0,1-0.8,1.2-1.4c0.4-1.3,0.7-2.6,0.9-3.9c0.9-5,1.4-10,2-15C79.3,234.6,78.5,95.1,78.2,94.6z"/>
<path fill="#C2BFBF" d="M83.1,259.9c0.2-2.3,1.3-4.2,2.5-6.1c-1.2-0.5-2.1-1.5-2.8-2.6c-0.6-1-1.1-2.2-1.5-3.3
	c-1.4-4.2-1.7-8.6-2.1-12.9c0,0,0,0,0,0h0c0-0.4,0-0.9,0-1.3c0,0,0,0,0,0c0-0.4,0-0.9,0-1.3c-0.5,0.4-0.6,3.8-0.6,4.3
	c-0.3,4.6-0.9,9.1-1.8,13.5c-0.3,1.8-0.5,3.6-1.6,5.2c0,0.2,0,0.4,0.1,0.7c1.8,5.3,2.3,10.7,2.6,16.2c0,0.7,0,1.3,0,2
	c0,2.4-0.1,1.9,1.9,2.7c0.8,0.3,1.7,0.4,2.5,1c0.6,0,0.7-0.5,0.7-0.9c-0.1-1.1-0.3-2.2-0.3-3.3c0-3.1-0.1-6.1,0-9.2
	C82.6,263,82.9,261.4,83.1,259.9z"/>
<path fill="#C2BFBF" d="M652.4,188.2c-1.1-7.3-3.8-13.8-8.5-19.5c-4.2-5.1-9.3-8.9-15.4-11.4c-6.3-2.6-13-3.4-19.8-3.6
	c-2.8-0.1-41,0.5-43.8,0c-0.7-0.1-1.2,0.1-1.6,0.7c-0.5,0.8-1,1.5-1.3,2.3c-1.2,2.7-1.2,2.5,1.7,2.9c2.4,0.4,4.7,0.6,7,1.3
	c2.1,0.7,3.6,1.9,4.1,4.2c0.2,1.1,0.4,36.3,0.4,52.7c0,3.9-0.1,7.8-0.4,11.7c-0.1,0.9-0.2,1.8-0.5,2.6c-0.4,1.2-1.1,2.2-2.3,2.7
	c-1.3,0.6-2.7,1-4.2,1.1c-2.7,0.3-3.1,0.4-4,3.4c-0.1,0.4-0.2,0.8-0.3,1.1c-0.2,1.3-0.1,1.5,1.2,1.5c6,0.1,24.9,0.3,29.9,0.3
	c2.8-0.1,7.3,0.2,11.7-0.2c2.7-0.3,5.4-0.5,8.1-1c9.2-1.7,17.4-5.5,24.4-11.6c4.1-3.6,7.2-7.8,9.6-12.6c2.8-5.6,4-11.7,4.3-17.9
	C653.2,195.4,653,191.8,652.4,188.2z M637.9,202.4c-0.4,6.4-1.7,12.6-5,18.2c-4.2,7.3-10.2,12.4-18.5,14.2
	c-3.6,0.8-7.2,1.1-10.9,0.6c-2.7-0.3-5.3-0.6-7.8-1.5c-4.5-1.6-6.1-4.4-6.2-8.7c-0.2-6.3,0-50.4-0.1-60.3c0-3.6,1.6-4.4,4.2-4.5
	c3.9-0.3,7.9-0.2,11.8,0.2c4.2,0.4,8.2,1.4,12.1,3c2.9,1.2,5.6,2.9,7.9,4.9c5.4,4.6,9,10.4,10.9,17.2
	C637.9,191.2,638.2,196.8,637.9,202.4z"/>
<path fill="#C2BFBF" d="M735.5,212.2c0-0.6,0-1.1-0.1-1.7c-0.9-5.5-3.8-9.7-8.3-12.9c-2.9-2.1-6.2-3.5-9.6-4.5
	c-0.6-0.2-1.1-0.4-1.7-0.5c0.1-0.5,0.4-0.6,0.7-0.7c2-1,3.9-2.1,5.6-3.6c3.1-2.6,5.2-5.8,6.2-9.7c0.6-2.1,0.6-4.2,0.4-6.4
	c-0.5-5.5-2.9-9.8-7.3-13c-4.6-3.4-10-4.8-15.6-4.9c-10.8-0.2-21.7,0-32.5,0c-3.1,0-6.2,0.2-9.4-0.3c-0.6-0.1-1.4-0.3-1.9,0.4
	c-0.8,1.3-1.6,2.6-1.9,4.1c-0.1,0.7,0.1,1.1,0.9,1.2c2.3,0.3,4.6,0.7,6.9,1c2.7,0.4,4.6,1.9,4.8,4.3c0.2,1.7,0.3,3.3,0.3,5
	c0,6.2-0.1,12.5-0.2,18.7c-0.2,12.3-0.1,24.7-0.1,37c0,2.2-0.3,4.3-0.7,6.5c-0.3,1.5-1.1,2.5-2.6,3c-2,0.6-3.9,1.2-6,1.2
	c-1.3,0-2.1,0.5-2.6,1.7c-0.4,0.9-0.8,1.9-0.9,2.8c-0.2,1.2,0.1,1.6,1.3,1.4c0.9-0.1,33.9,0.7,40.1,0.1c3.7-0.4,7.4-0.9,11-2
	c6.3-2,12.1-4.9,16.7-9.8c3.8-4,6-8.8,6.2-14.4C735.5,214.9,735.5,213.6,735.5,212.2z M687,171.3c0.2-2.7,0.2-5.3,0.3-8
	c0-1.5,0.6-2.2,2.1-2.5c2.4-0.5,4.8-0.3,7.2-0.2c2.4,0.2,4.7,0.5,7.1,1.2c4.4,1.3,7.8,3.8,9.8,8c0.9,1.9,1.4,4,1.4,6.1
	c0.1,2.8-0.1,5.5-1.2,8.2c-1.7,3.7-4.4,6.1-8.3,6.8c-3.9,0.7-15,0.4-16.7,0.4c-1.5,0-1.6-0.2-1.6-1.7c0-3.2,0-6.4,0-9.5c0,0,0,0,0,0
	C686.9,177.3,686.8,174.3,687,171.3z M719.5,225.1c-1.7,4.5-4.8,7.6-9.2,9.3c-2.4,0.9-4.8,1.4-7.4,1.3c-3.1-0.1-6.2,0-9.3-0.6
	c-4.2-0.9-6.1-4.9-6.4-7.8c-0.5-5.1-0.2-10.3-0.3-14.1c0-5.3,0-9.2,0-13.2c0-1.6,0.2-2.1,1.9-2.1c3.1-0.1,6.2-0.2,9.4,0.1
	c2.2,0.2,4.3,0.4,6.4,0.8c4.5,1,8.6,2.7,11.8,6.2c2.6,2.8,4,6.2,4.3,9.9C721,218.4,720.8,221.8,719.5,225.1z"/>
<path fill="#47474A" d="M465.4,194.9c0.9,0.1,1.8,0.3,2.6,0.4c2.8,0.1,6.1-0.9,7.1-4.8c0.5-1.9,0.6-3.7,0-5.7
	c-0.6,0-0.9,0.5-1.2,0.7c-1.5,1.2-3.2,1.9-5,2.1c-3.6,0.4-7.2,0.2-10.7-1.1c-1.6-0.6-3.2-1.2-4.9-1.7c-3.4-1.1-7-1.6-10.6-1.4
	c-5.1,0.4-9.9,2.1-14.4,4.5c-4.8,2.6-8.2,6.5-9.8,11.8c-0.9,3.1-1,6.3-0.6,9.5c1,7.3,4.8,12.4,11.6,15.1c0.4,0.1,0.7,0.3,1.1,0.4
	c0.9,0.5,1,1,0.2,1.7c-0.8,0.6-1.6,1.2-2.5,1.7c-2,1.2-4,2.4-6,3.7c-1.5,0.9-1.7,1.6-1.2,3.2c0.6,1.9,1.7,3.5,3.2,4.8
	c1.4,1.2,2.9,2.1,4.6,2.8c1.1,0.5,1.1,0.8,0.1,1.6c-1.9,1.4-3.8,2.7-5.7,4.1c-1.9,1.4-3.8,3-5.4,4.8c-2.3,2.6-3.1,5.6-2.4,9
	c0.8,3.6,2.5,6.5,5.2,9c2.6,2.4,5.7,4.1,9.2,5c5.6,1.6,11.4,1.7,17.1,0.6c8.2-1.5,15.3-5.2,21-11.3c3.9-4.1,6.2-8.9,6.4-14.7
	c0.3-7-4-12.9-10.8-14.6c-1.8-0.4-3.6-0.7-5.4-1c-5.5-0.7-11-1-16.5-1.4c-1.8-0.1-3.6-0.4-5.1-1.3c-1.9-1.2-2.4-3.5-1.2-5
	c0.9-1.1,2-1.8,3.4-1.9c1.1-0.1,2.1-0.2,3.2-0.3c6.5-0.7,12.1-3.3,16.9-7.7c2.5-2.3,4.2-5.2,5.1-8.5c1.2-4.3,1.2-8.7,0.2-13.1
	C463.9,194.8,464,194.7,465.4,194.9z M440.9,244.7c0.6,0.1,1.2,0,1.8,0c4.2,0.2,8.5,0.5,12.6,1.6c1.4,0.4,2.6,0.9,3.9,1.5
	c4,2.2,5.5,6,5,10.1c-0.6,4.5-3.1,7.7-7,9.8c-2.6,1.4-5.5,2.1-8.5,2.4c-1.1,0.1-2.1,0-3.2,0c-3.5,0.1-6.9-0.3-10.2-1.7
	c-2.3-0.9-4.2-2.2-5.9-4c-3.5-3.5-5.2-9.9,0.1-15.1C432.7,246.3,436.3,244.3,440.9,244.7z M452.3,213.5c-2.1,5.3-6.7,6.9-11.3,6.2
	c-4.2-0.6-7.3-2.9-9.3-6.7c-2.6-5.1-3.3-10.4-1.8-15.9c1.1-4.1,3.6-7.2,8-7.9c5.6-1,10.9,1,13.8,6.6c1.4,2.7,2.1,6,2.1,10.7
	C453.7,208.4,453.3,211,452.3,213.5z"/>
<path fill="#47474A" d="M326.3,206.7c-0.9-5.4-2.9-10.3-6.6-14.4c-5.5-6.1-12.5-8.7-20.4-8.8c-6.9-0.1-13.4,1.9-19.2,5.5
	c-5.8,3.6-9.8,8.7-11.7,15.3c-1.7,5.8-1.6,11.7-0.3,17.6c3.5,15.8,15.7,22.6,30.3,21.6c4.3-0.3,8.4-1.7,12.3-3.6
	c5.8-2.7,10-7,12.9-12.7c2.3-4.7,3.3-9.7,3.2-15.4C326.7,210.4,326.6,208.5,326.3,206.7z M312.1,228.9c-1.8,4.8-5.2,7.7-10.3,8.4
	c-4.4,0.6-8.5-0.5-12.2-3.1c-2.7-2-4.8-4.5-6.3-7.5c-4.1-8.4-4.8-17.2-2.7-26.2c0.7-2.8,2.1-5.3,4.2-7.3c3.7-3.4,8-4.2,12.8-3.2
	c4.6,1,8.1,3.5,10.9,7.3c2.8,3.8,4.2,8.2,5,12.8c0.4,2.3,0.4,4.7,0.5,6.2C314,221.1,313.6,225,312.1,228.9z"/>
<path fill="#47474A" d="M544.8,207.5c-0.8-5.8-2.9-11.1-7-15.5c-5.4-5.9-12.4-8.4-20.2-8.5c-6.7-0.1-12.9,1.8-18.6,5.1
	c-6.4,3.8-10.8,9.2-12.5,16.5c-2,8.2-1.2,16.2,2.4,23.8c3.3,7,8.9,11.5,16.3,13.5c8.2,2.2,16,1.2,23.6-2.5c6.6-3.2,11.3-8.2,14-15
	c1.6-4,2.2-8.3,2.3-13.3C545.2,210.7,545,209.1,544.8,207.5z M531,227.6c-1.6,5.4-5,8.9-10.7,9.7c-4.2,0.6-8.2-0.4-11.8-2.8
	c-3.1-2.1-5.3-4.9-6.9-8.2c-1.8-3.5-2.8-7.2-3.2-11c-0.6-4.7-0.6-9.3,0.5-14c0.2-0.9,0.5-1.8,0.9-2.7c2.8-7,9-10.2,16.3-8.6
	c4.9,1.1,8.6,3.8,11.4,7.9c2.7,4,4,8.4,4.6,13.1c0.3,1.9,0.4,3.9,0.3,5.6C532.4,220.5,532.1,224.1,531,227.6z"/>
</svg>
